<?xml version="1.0" encoding="UTF-8"?>
<svg xmlns="http://www.w3.org/2000/svg" xmlns:xlink="http://www.w3.org/1999/xlink" width="431.4pt" height="335.6pt" viewBox="0 0 431.4 335.6" version="1.1">
<defs>
<clipPath id="clip1">
  <path d="M 0 0 L 431.398438 0 L 431.398438 335.601563 L 0 335.601563 Z M 0 0 "/>
</clipPath>
</defs>
<g id="surface1">
<g clip-path="url(#clip1)" clip-rule="nonzero">
<path style=" stroke:none;fill-rule:evenodd;fill:rgb(100%,100%,100%);fill-opacity:1;" d="M 0.0742188 335.558594 L 431.402344 335.558594 L 431.402344 -0.0664063 L 0.0742188 -0.0664063 Z M 0.0742188 335.558594 "/>
</g>
<path style="fill-rule:evenodd;fill:rgb(0%,0.784302%,0%);fill-opacity:1;stroke-width:2.16;stroke-linecap:butt;stroke-linejoin:miter;stroke:rgb(0%,0.784302%,0%);stroke-opacity:1;stroke-miterlimit:4;" d="M 959.609375 2939.632813 C 941.953125 2959.554688 940.585938 2983.96875 955.429688 3003.734375 C 965.390625 3016.9375 970.429688 3015.375 985.9375 3015.492188 C 1510.507813 3019.789063 2170.390625 2989.242188 2083.867188 2273.96875 C 2049.453125 1989.945313 1850.742188 1876.625 1601.210938 1834.320313 C 1585.039063 1831.546875 1576.054688 1821.703125 1574.296875 1804.046875 C 1571.523438 1776.039063 1583.710938 1763.734375 1608.242188 1763.421875 C 1954.765625 1759.007813 2194.921875 1547.015625 2163.476563 1173.695313 C 2177.695313 993.070313 2114.101563 215.257813 2559.53125 495.101563 C 2582.578125 509.554688 2609.804688 531.625 2635.703125 505.296875 C 2663.710938 476.820313 2634.140625 442.5625 2608.632813 428.851563 C 2208.984375 215.101563 1809.453125 403.460938 1798.242188 875.726563 C 1818.28125 1525.492188 1647.109375 1720.84375 1459.6875 1749.085938 C 1286.5625 1755.257813 1158.710938 1738.734375 984.648438 1744.867188 C 956.054688 1745.882813 951.367188 1836.546875 985.195313 1837.25 C 1090.664063 1839.554688 1196.171875 1841.898438 1301.640625 1844.203125 C 1381.289063 1845.960938 1420.78125 1844.125 1485.9375 1895.726563 C 1685.703125 2054.085938 1708.945313 2400.6875 1646.875 2637.015625 C 1619.804688 2740.0625 1563.632813 2826.234375 1461.835938 2889.28125 C 1378.710938 2925.492188 1285.390625 2938.304688 1173.515625 2936.195313 C 1132.617188 2934.398438 1091.71875 2934.28125 1050.78125 2934.007813 C 1029.414063 2933.851563 1007.96875 2933.65625 986.5625 2933.109375 C 974.101563 2932.835938 968.203125 2929.984375 959.609375 2939.632813 Z M 2153.867188 1779.320313 C 2153.867188 1816.273438 2146.5625 1817.601563 2183.984375 1817.835938 C 2295.664063 1818.578125 2407.382813 1819.28125 2519.101563 1820.023438 C 2807.382813 1841.351563 2806.640625 2060.765625 2811.640625 2284.828125 C 2812.34375 2314.945313 2815.9375 2309.007813 2845.390625 2309.007813 C 2874.101563 2309.007813 2874.6875 2313.1875 2874.765625 2284.203125 C 2875.507813 1943.773438 2876.289063 1603.382813 2877.03125 1262.953125 C 2877.109375 1230.023438 2876.484375 1236.15625 2843.90625 1236.15625 C 2811.523438 1236.15625 2814.804688 1233.1875 2813.554688 1265.492188 C 2805.46875 1467.445313 2778.242188 1729.59375 2511.875 1733.539063 C 2402.773438 1734.28125 2293.710938 1734.984375 2184.609375 1735.726563 C 2144.609375 1736 2153.867188 1740.101563 2153.867188 1779.320313 Z M 2165.507813 2946.664063 C 2165.507813 2984.945313 2159.0625 2985.414063 2197.8125 2985.21875 C 2576.757813 2982.953125 2955.703125 2980.648438 3334.648438 2978.382813 C 3366.484375 2978.1875 3364.882813 2982.445313 3365.078125 2950.492188 C 3366.5625 2762.640625 3368.085938 2574.789063 3369.53125 2386.9375 C 3369.726563 2359.90625 3362.460938 2365.023438 3336.40625 2365.21875 C 3311.640625 2365.453125 3307.695313 2361.742188 3306.40625 2387.367188 C 3288.515625 2746.078125 3117.1875 2916.3125 2783.398438 2903.695313 C 2590.78125 2902.953125 2393.90625 2902.171875 2200.78125 2901.429688 C 2156.523438 2901.273438 2165.507813 2903.226563 2165.507813 2946.664063 Z M 2165.507813 2946.664063 " transform="matrix(0.1,0,0,-0.1,0,335.6)"/>
</g>
</svg>
